<?xml version="1.0" encoding="UTF-8" standalone="no"?>
<!DOCTYPE svg PUBLIC "-//W3C//DTD SVG 1.1//EN"
 "http://www.w3.org/Graphics/SVG/1.1/DTD/svg11.dtd">
<!-- Generated by graphviz version 2.47.3 (20210619.1520)
 -->
<!-- Title: dependencies Pages: 1 -->
<svg width="1885pt" height="247pt"
 viewBox="0.00 0.00 1885.00 246.80" xmlns="http://www.w3.org/2000/svg" xmlns:xlink="http://www.w3.org/1999/xlink">
<g id="graph0" class="graph" transform="scale(1 1) rotate(0) translate(4 242.8)">
<title>dependencies</title>
<polygon fill="white" stroke="transparent" points="-4,4 -4,-242.8 1881,-242.8 1881,4 -4,4"/>
<text text-anchor="middle" x="938.5" y="-8.2" font-family="sans-serif" font-size="14.00">dependencies</text>
<g id="clust1" class="cluster">
<title>cluster_AppModule</title>
<polygon fill="none" stroke="black" stroke-dasharray="1,5" points="8,-32.8 8,-230.8 1869,-230.8 1869,-32.8 8,-32.8"/>
</g>
<g id="clust16" class="cluster">
<title>cluster_AppModule_bootstrap</title>
<polygon fill="none" stroke="black" points="846,-170.8 846,-222.8 970,-222.8 970,-170.8 846,-170.8"/>
</g>
<g id="clust14" class="cluster">
<title>cluster_AppModule_imports</title>
<polygon fill="none" stroke="black" points="1717,-40.8 1717,-92.8 1861,-92.8 1861,-40.8 1717,-40.8"/>
</g>
<g id="clust2" class="cluster">
<title>cluster_AppModule_declarations</title>
<polygon fill="none" stroke="black" points="16,-40.8 16,-92.8 1709,-92.8 1709,-40.8 16,-40.8"/>
</g>
<!-- AppComponent -->
<g id="node1" class="node">
<title>AppComponent</title>
<polygon fill="#ffffb3" stroke="black" points="1700.94,-84.8 1595.06,-84.8 1595.06,-48.8 1700.94,-48.8 1700.94,-84.8"/>
<text text-anchor="middle" x="1648" y="-62.6" font-family="Times,serif" font-size="14.00">AppComponent</text>
</g>
<!-- AppModule -->
<g id="node12" class="node">
<title>AppModule</title>
<polygon fill="#8dd3c7" stroke="black" points="949.66,-149.8 946.66,-153.8 925.66,-153.8 922.66,-149.8 866.34,-149.8 866.34,-113.8 949.66,-113.8 949.66,-149.8"/>
<text text-anchor="middle" x="908" y="-127.6" font-family="Times,serif" font-size="14.00">AppModule</text>
</g>
<!-- AppComponent&#45;&gt;AppModule -->
<g id="edge1" class="edge">
<title>AppComponent&#45;&gt;AppModule</title>
<path fill="none" stroke="black" d="M1648,-85.08C1648,-106.12 1648,-137.8 1648,-137.8 1648,-137.8 959.91,-137.8 959.91,-137.8"/>
<polygon fill="black" stroke="black" points="959.91,-134.3 949.91,-137.8 959.91,-141.3 959.91,-134.3"/>
</g>
<!-- CompanyHolidayComponent -->
<g id="node2" class="node">
<title>CompanyHolidayComponent</title>
<polygon fill="#ffffb3" stroke="black" points="1577.38,-84.8 1396.62,-84.8 1396.62,-48.8 1577.38,-48.8 1577.38,-84.8"/>
<text text-anchor="middle" x="1487" y="-62.6" font-family="Times,serif" font-size="14.00">CompanyHolidayComponent</text>
</g>
<!-- CompanyHolidayComponent&#45;&gt;AppModule -->
<g id="edge2" class="edge">
<title>CompanyHolidayComponent&#45;&gt;AppModule</title>
<path fill="none" stroke="black" d="M1487,-84.91C1487,-104.14 1487,-131.8 1487,-131.8 1487,-131.8 960.11,-131.8 960.11,-131.8"/>
<polygon fill="black" stroke="black" points="960.11,-128.3 950.11,-131.8 960.11,-135.3 960.11,-128.3"/>
</g>
<!-- CompanyHolidayPipe -->
<g id="node3" class="node">
<title>CompanyHolidayPipe</title>
<polygon fill="#ffffb3" stroke="black" points="1378.43,-84.8 1237.57,-84.8 1237.57,-48.8 1378.43,-48.8 1378.43,-84.8"/>
<text text-anchor="middle" x="1308" y="-62.6" font-family="Times,serif" font-size="14.00">CompanyHolidayPipe</text>
</g>
<!-- CompanyHolidayPipe&#45;&gt;AppModule -->
<g id="edge3" class="edge">
<title>CompanyHolidayPipe&#45;&gt;AppModule</title>
<path fill="none" stroke="black" d="M1308,-84.82C1308,-102.17 1308,-125.8 1308,-125.8 1308,-125.8 959.68,-125.8 959.68,-125.8"/>
<polygon fill="black" stroke="black" points="959.68,-122.3 949.68,-125.8 959.67,-129.3 959.68,-122.3"/>
</g>
<!-- DisplayLeavesComponent -->
<g id="node4" class="node">
<title>DisplayLeavesComponent</title>
<polygon fill="#ffffb3" stroke="black" points="1220.02,-84.8 1055.98,-84.8 1055.98,-48.8 1220.02,-48.8 1220.02,-84.8"/>
<text text-anchor="middle" x="1138" y="-62.6" font-family="Times,serif" font-size="14.00">DisplayLeavesComponent</text>
</g>
<!-- DisplayLeavesComponent&#45;&gt;AppModule -->
<g id="edge4" class="edge">
<title>DisplayLeavesComponent&#45;&gt;AppModule</title>
<path fill="none" stroke="black" d="M1138,-85.04C1138,-100.37 1138,-119.8 1138,-119.8 1138,-119.8 959.92,-119.8 959.92,-119.8"/>
<polygon fill="black" stroke="black" points="959.92,-116.3 949.92,-119.8 959.92,-123.3 959.92,-116.3"/>
</g>
<!-- HeaderComponent -->
<g id="node5" class="node">
<title>HeaderComponent</title>
<polygon fill="#ffffb3" stroke="black" points="1037.74,-84.8 916.26,-84.8 916.26,-48.8 1037.74,-48.8 1037.74,-84.8"/>
<text text-anchor="middle" x="977" y="-62.6" font-family="Times,serif" font-size="14.00">HeaderComponent</text>
</g>
<!-- HeaderComponent&#45;&gt;AppModule -->
<g id="edge5" class="edge">
<title>HeaderComponent&#45;&gt;AppModule</title>
<path fill="none" stroke="black" d="M932.98,-84.91C932.98,-84.91 932.98,-103.79 932.98,-103.79"/>
<polygon fill="black" stroke="black" points="929.48,-103.79 932.98,-113.79 936.48,-103.79 929.48,-103.79"/>
</g>
<!-- HomeComponent -->
<g id="node6" class="node">
<title>HomeComponent</title>
<polygon fill="#ffffb3" stroke="black" points="897.55,-84.8 782.45,-84.8 782.45,-48.8 897.55,-48.8 897.55,-84.8"/>
<text text-anchor="middle" x="840" y="-62.6" font-family="Times,serif" font-size="14.00">HomeComponent</text>
</g>
<!-- HomeComponent&#45;&gt;AppModule -->
<g id="edge6" class="edge">
<title>HomeComponent&#45;&gt;AppModule</title>
<path fill="none" stroke="black" d="M881.97,-84.91C881.97,-84.91 881.97,-103.79 881.97,-103.79"/>
<polygon fill="black" stroke="black" points="878.47,-103.79 881.97,-113.79 885.47,-103.79 878.47,-103.79"/>
</g>
<!-- LeaveCountersComponent -->
<g id="node7" class="node">
<title>LeaveCountersComponent</title>
<polygon fill="#ffffb3" stroke="black" points="764.08,-84.8 597.92,-84.8 597.92,-48.8 764.08,-48.8 764.08,-84.8"/>
<text text-anchor="middle" x="681" y="-62.6" font-family="Times,serif" font-size="14.00">LeaveCountersComponent</text>
</g>
<!-- LeaveCountersComponent&#45;&gt;AppModule -->
<g id="edge7" class="edge">
<title>LeaveCountersComponent&#45;&gt;AppModule</title>
<path fill="none" stroke="black" d="M681,-85.04C681,-100.37 681,-119.8 681,-119.8 681,-119.8 856.1,-119.8 856.1,-119.8"/>
<polygon fill="black" stroke="black" points="856.1,-123.3 866.1,-119.8 856.1,-116.3 856.1,-123.3"/>
</g>
<!-- LeaveStatusPipe -->
<g id="node8" class="node">
<title>LeaveStatusPipe</title>
<polygon fill="#ffffb3" stroke="black" points="579.81,-84.8 470.19,-84.8 470.19,-48.8 579.81,-48.8 579.81,-84.8"/>
<text text-anchor="middle" x="525" y="-62.6" font-family="Times,serif" font-size="14.00">LeaveStatusPipe</text>
</g>
<!-- LeaveStatusPipe&#45;&gt;AppModule -->
<g id="edge8" class="edge">
<title>LeaveStatusPipe&#45;&gt;AppModule</title>
<path fill="none" stroke="black" d="M525,-84.82C525,-102.17 525,-125.8 525,-125.8 525,-125.8 856.28,-125.8 856.28,-125.8"/>
<polygon fill="black" stroke="black" points="856.28,-129.3 866.28,-125.8 856.28,-122.3 856.28,-129.3"/>
</g>
<!-- LeaveTypePipe -->
<g id="node9" class="node">
<title>LeaveTypePipe</title>
<polygon fill="#ffffb3" stroke="black" points="451.85,-84.8 348.15,-84.8 348.15,-48.8 451.85,-48.8 451.85,-84.8"/>
<text text-anchor="middle" x="400" y="-62.6" font-family="Times,serif" font-size="14.00">LeaveTypePipe</text>
</g>
<!-- LeaveTypePipe&#45;&gt;AppModule -->
<g id="edge9" class="edge">
<title>LeaveTypePipe&#45;&gt;AppModule</title>
<path fill="none" stroke="black" d="M400,-84.91C400,-104.14 400,-131.8 400,-131.8 400,-131.8 856,-131.8 856,-131.8"/>
<polygon fill="black" stroke="black" points="856,-135.3 866,-131.8 856,-128.3 856,-135.3"/>
</g>
<!-- LeaveValidationComponent -->
<g id="node10" class="node">
<title>LeaveValidationComponent</title>
<polygon fill="#ffffb3" stroke="black" points="330.13,-84.8 155.87,-84.8 155.87,-48.8 330.13,-48.8 330.13,-84.8"/>
<text text-anchor="middle" x="243" y="-62.6" font-family="Times,serif" font-size="14.00">LeaveValidationComponent</text>
</g>
<!-- LeaveValidationComponent&#45;&gt;AppModule -->
<g id="edge10" class="edge">
<title>LeaveValidationComponent&#45;&gt;AppModule</title>
<path fill="none" stroke="black" d="M243,-85.08C243,-106.12 243,-137.8 243,-137.8 243,-137.8 856.15,-137.8 856.15,-137.8"/>
<polygon fill="black" stroke="black" points="856.15,-141.3 866.15,-137.8 856.15,-134.3 856.15,-141.3"/>
</g>
<!-- MenuComponent -->
<g id="node11" class="node">
<title>MenuComponent</title>
<polygon fill="#ffffb3" stroke="black" points="137.99,-84.8 24.01,-84.8 24.01,-48.8 137.99,-48.8 137.99,-84.8"/>
<text text-anchor="middle" x="81" y="-62.6" font-family="Times,serif" font-size="14.00">MenuComponent</text>
</g>
<!-- MenuComponent&#45;&gt;AppModule -->
<g id="edge11" class="edge">
<title>MenuComponent&#45;&gt;AppModule</title>
<path fill="none" stroke="black" d="M81,-85.05C81,-107.82 81,-143.8 81,-143.8 81,-143.8 856.14,-143.8 856.14,-143.8"/>
<polygon fill="black" stroke="black" points="856.14,-147.3 866.14,-143.8 856.14,-140.3 856.14,-147.3"/>
</g>
<!-- AppComponent  -->
<g id="node14" class="node">
<title>AppComponent </title>
<polygon fill="#80b1d3" stroke="black" points="962.44,-214.8 853.56,-214.8 853.56,-178.8 962.44,-178.8 962.44,-214.8"/>
<text text-anchor="middle" x="908" y="-192.6" font-family="Times,serif" font-size="14.00">AppComponent </text>
</g>
<!-- AppModule&#45;&gt;AppComponent  -->
<g id="edge13" class="edge">
<title>AppModule&#45;&gt;AppComponent </title>
<path fill="none" stroke="black" stroke-dasharray="1,5" d="M908,-149.91C908,-149.91 908,-168.79 908,-168.79"/>
<polygon fill="black" stroke="black" points="904.5,-168.79 908,-178.79 911.5,-168.79 904.5,-168.79"/>
</g>
<!-- AppRoutingModule -->
<g id="node13" class="node">
<title>AppRoutingModule</title>
<polygon fill="#8dd3c7" stroke="black" points="1853.27,-84.8 1850.27,-88.8 1829.27,-88.8 1826.27,-84.8 1724.73,-84.8 1724.73,-48.8 1853.27,-48.8 1853.27,-84.8"/>
<text text-anchor="middle" x="1789" y="-62.6" font-family="Times,serif" font-size="14.00">AppRoutingModule</text>
</g>
<!-- AppRoutingModule&#45;&gt;AppModule -->
<g id="edge12" class="edge">
<title>AppRoutingModule&#45;&gt;AppModule</title>
<path fill="none" stroke="black" d="M1789,-85.05C1789,-107.82 1789,-143.8 1789,-143.8 1789,-143.8 959.9,-143.8 959.9,-143.8"/>
<polygon fill="black" stroke="black" points="959.9,-140.3 949.9,-143.8 959.9,-147.3 959.9,-140.3"/>
</g>
</g>
</svg>
