<?xml version="1.0" encoding="UTF-8" standalone="no"?>
<!DOCTYPE svg PUBLIC "-//W3C//DTD SVG 1.1//EN"
 "http://www.w3.org/Graphics/SVG/1.1/DTD/svg11.dtd">
<!-- Generated by graphviz version 2.47.3 (20210619.1520)
 -->
<!-- Title: dependencies Pages: 1 -->
<svg width="3241pt" height="247pt"
     viewBox="0.00 0.00 3241.00 246.80" xmlns="http://www.w3.org/2000/svg">
<g id="graph0" class="graph" transform="scale(1 1) rotate(0) translate(4 242.8)">
<title>dependencies</title>
<polygon fill="white" stroke="transparent" points="-4,4 -4,-242.8 3237,-242.8 3237,4 -4,4"/>
<text text-anchor="middle" x="1616.5" y="-8.2" font-family="sans-serif" font-size="14.00">dependencies</text>
<g id="clust1" class="cluster">
<title>cluster_AppModule</title>
<polygon fill="none" stroke="black" stroke-dasharray="1,5" points="8,-32.8 8,-230.8 3225,-230.8 3225,-32.8 8,-32.8"/>
</g>
<g id="clust22" class="cluster">
<title>cluster_AppModule_imports</title>
<polygon fill="none" stroke="black" points="3073,-40.8 3073,-92.8 3217,-92.8 3217,-40.8 3073,-40.8"/>
</g>
<g id="clust24" class="cluster">
<title>cluster_AppModule_bootstrap</title>
<polygon fill="none" stroke="black" points="1473,-170.8 1473,-222.8 1597,-222.8 1597,-170.8 1473,-170.8"/>
</g>
<g id="clust2" class="cluster">
<title>cluster_AppModule_declarations</title>
<polygon fill="none" stroke="black" points="16,-40.8 16,-92.8 3065,-92.8 3065,-40.8 16,-40.8"/>
</g>
<!-- AppComponent -->
<g id="node1" class="node">
<title>AppComponent</title>
<polygon fill="#ffffb3" stroke="black" points="3056.94,-84.8 2951.06,-84.8 2951.06,-48.8 3056.94,-48.8 3056.94,-84.8"/>
<text text-anchor="middle" x="3004" y="-62.6" font-family="Times,serif" font-size="14.00">AppComponent</text>
</g>
<!-- AppModule -->
<g id="node20" class="node">
<title>AppModule</title>
<polygon fill="#8dd3c7" stroke="black" points="1576.66,-149.8 1573.66,-153.8 1552.66,-153.8 1549.66,-149.8 1493.34,-149.8 1493.34,-113.8 1576.66,-113.8 1576.66,-149.8"/>
<text text-anchor="middle" x="1535" y="-127.6" font-family="Times,serif" font-size="14.00">AppModule</text>
</g>
<!-- AppComponent&#45;&gt;AppModule -->
<g id="edge1" class="edge">
<title>AppComponent&#45;&gt;AppModule</title>
<path fill="none" stroke="black" d="M3004,-84.81C3004,-107.29 3004,-142.8 3004,-142.8 3004,-142.8 1586.99,-142.8 1586.99,-142.8"/>
<polygon fill="black" stroke="black" points="1586.99,-139.3 1576.99,-142.8 1586.99,-146.3 1586.99,-139.3"/>
</g>
<!-- CompanyHolidayComponent -->
<g id="node2" class="node">
<title>CompanyHolidayComponent</title>
<polygon fill="#ffffb3" stroke="black" points="2933.38,-84.8 2752.62,-84.8 2752.62,-48.8 2933.38,-48.8 2933.38,-84.8"/>
<text text-anchor="middle" x="2843" y="-62.6" font-family="Times,serif" font-size="14.00">CompanyHolidayComponent</text>
</g>
<!-- CompanyHolidayComponent&#45;&gt;AppModule -->
<g id="edge2" class="edge">
<title>CompanyHolidayComponent&#45;&gt;AppModule</title>
<path fill="none" stroke="black" d="M2843,-84.84C2843,-106.46 2843,-139.8 2843,-139.8 2843,-139.8 1586.67,-139.8 1586.67,-139.8"/>
<polygon fill="black" stroke="black" points="1586.67,-136.3 1576.67,-139.8 1586.67,-143.3 1586.67,-136.3"/>
</g>
<!-- CompanyHolidayPipe -->
<g id="node3" class="node">
<title>CompanyHolidayPipe</title>
<polygon fill="#ffffb3" stroke="black" points="2734.43,-84.8 2593.57,-84.8 2593.57,-48.8 2734.43,-48.8 2734.43,-84.8"/>
<text text-anchor="middle" x="2664" y="-62.6" font-family="Times,serif" font-size="14.00">CompanyHolidayPipe</text>
</g>
<!-- CompanyHolidayPipe&#45;&gt;AppModule -->
<g id="edge3" class="edge">
<title>CompanyHolidayPipe&#45;&gt;AppModule</title>
<path fill="none" stroke="black" d="M2664,-84.93C2664,-105.37 2664,-135.8 2664,-135.8 2664,-135.8 1586.86,-135.8 1586.86,-135.8"/>
<polygon fill="black" stroke="black" points="1586.86,-132.3 1576.86,-135.8 1586.86,-139.3 1586.86,-132.3"/>
</g>
<!-- CreateCompanyHolidayComponent -->
<g id="node4" class="node">
<title>CreateCompanyHolidayComponent</title>
<polygon fill="#ffffb3" stroke="black" points="2575.91,-84.8 2358.09,-84.8 2358.09,-48.8 2575.91,-48.8 2575.91,-84.8"/>
<text text-anchor="middle" x="2467" y="-62.6" font-family="Times,serif" font-size="14.00">CreateCompanyHolidayComponent</text>
</g>
<!-- CreateCompanyHolidayComponent&#45;&gt;AppModule -->
<g id="edge4" class="edge">
<title>CreateCompanyHolidayComponent&#45;&gt;AppModule</title>
<path fill="none" stroke="black" d="M2467,-84.91C2467,-104.14 2467,-131.8 2467,-131.8 2467,-131.8 1586.86,-131.8 1586.86,-131.8"/>
<polygon fill="black" stroke="black" points="1586.86,-128.3 1576.86,-131.8 1586.86,-135.3 1586.86,-128.3"/>
</g>
<!-- DialogCompanyHolidayDelete -->
<g id="node5" class="node">
<title>DialogCompanyHolidayDelete</title>
<polygon fill="#ffffb3" stroke="black" points="2340.18,-84.8 2149.82,-84.8 2149.82,-48.8 2340.18,-48.8 2340.18,-84.8"/>
<text text-anchor="middle" x="2245" y="-62.6" font-family="Times,serif" font-size="14.00">DialogCompanyHolidayDelete</text>
</g>
<!-- DialogCompanyHolidayDelete&#45;&gt;AppModule -->
<g id="edge5" class="edge">
<title>DialogCompanyHolidayDelete&#45;&gt;AppModule</title>
<path fill="none" stroke="black" d="M2245,-85.07C2245,-103.36 2245,-128.8 2245,-128.8 2245,-128.8 1586.76,-128.8 1586.76,-128.8"/>
<polygon fill="black" stroke="black" points="1586.76,-125.3 1576.76,-128.8 1586.76,-132.3 1586.76,-125.3"/>
</g>
<!-- DialogLeaveDelete -->
<g id="node6" class="node">
<title>DialogLeaveDelete</title>
<polygon fill="#ffffb3" stroke="black" points="2131.33,-84.8 2006.67,-84.8 2006.67,-48.8 2131.33,-48.8 2131.33,-84.8"/>
<text text-anchor="middle" x="2069" y="-62.6" font-family="Times,serif" font-size="14.00">DialogLeaveDelete</text>
</g>
<!-- DialogLeaveDelete&#45;&gt;AppModule -->
<g id="edge6" class="edge">
<title>DialogLeaveDelete&#45;&gt;AppModule</title>
<path fill="none" stroke="black" d="M2069,-84.83C2069,-101.86 2069,-124.8 2069,-124.8 2069,-124.8 1586.9,-124.8 1586.9,-124.8"/>
<polygon fill="black" stroke="black" points="1586.9,-121.3 1576.9,-124.8 1586.9,-128.3 1586.9,-121.3"/>
</g>
<!-- DisplayLeavesComponent -->
<g id="node7" class="node">
<title>DisplayLeavesComponent</title>
<polygon fill="#ffffb3" stroke="black" points="1988.02,-84.8 1823.98,-84.8 1823.98,-48.8 1988.02,-48.8 1988.02,-84.8"/>
<text text-anchor="middle" x="1906" y="-62.6" font-family="Times,serif" font-size="14.00">DisplayLeavesComponent</text>
</g>
<!-- DisplayLeavesComponent&#45;&gt;AppModule -->
<g id="edge7" class="edge">
<title>DisplayLeavesComponent&#45;&gt;AppModule</title>
<path fill="none" stroke="black" d="M1906,-84.81C1906,-100.85 1906,-121.8 1906,-121.8 1906,-121.8 1586.84,-121.8 1586.84,-121.8"/>
<polygon fill="black" stroke="black" points="1586.84,-118.3 1576.84,-121.8 1586.84,-125.3 1586.84,-118.3"/>
</g>
<!-- EnumToArrayPipe -->
<g id="node8" class="node">
<title>EnumToArrayPipe</title>
<polygon fill="#ffffb3" stroke="black" points="1805.03,-84.8 1682.97,-84.8 1682.97,-48.8 1805.03,-48.8 1805.03,-84.8"/>
<text text-anchor="middle" x="1744" y="-62.6" font-family="Times,serif" font-size="14.00">EnumToArrayPipe</text>
</g>
<!-- EnumToArrayPipe&#45;&gt;AppModule -->
<g id="edge8" class="edge">
<title>EnumToArrayPipe&#45;&gt;AppModule</title>
<path fill="none" stroke="black" d="M1744,-84.92C1744,-99.58 1744,-117.8 1744,-117.8 1744,-117.8 1586.79,-117.8 1586.79,-117.8"/>
<polygon fill="black" stroke="black" points="1586.79,-114.3 1576.79,-117.8 1586.79,-121.3 1586.79,-114.3"/>
</g>
<!-- HeaderComponent -->
<g id="node9" class="node">
<title>HeaderComponent</title>
<polygon fill="#ffffb3" stroke="black" points="1664.74,-84.8 1543.26,-84.8 1543.26,-48.8 1664.74,-48.8 1664.74,-84.8"/>
<text text-anchor="middle" x="1604" y="-62.6" font-family="Times,serif" font-size="14.00">HeaderComponent</text>
</g>
<!-- HeaderComponent&#45;&gt;AppModule -->
<g id="edge9" class="edge">
<title>HeaderComponent&#45;&gt;AppModule</title>
<path fill="none" stroke="black" d="M1559.98,-84.91C1559.98,-84.91 1559.98,-103.79 1559.98,-103.79"/>
<polygon fill="black" stroke="black" points="1556.48,-103.79 1559.98,-113.79 1563.48,-103.79 1556.48,-103.79"/>
</g>
<!-- HomeComponent -->
<g id="node10" class="node">
<title>HomeComponent</title>
<polygon fill="#ffffb3" stroke="black" points="1524.55,-84.8 1409.45,-84.8 1409.45,-48.8 1524.55,-48.8 1524.55,-84.8"/>
<text text-anchor="middle" x="1467" y="-62.6" font-family="Times,serif" font-size="14.00">HomeComponent</text>
</g>
<!-- HomeComponent&#45;&gt;AppModule -->
<g id="edge10" class="edge">
<title>HomeComponent&#45;&gt;AppModule</title>
<path fill="none" stroke="black" d="M1508.97,-84.91C1508.97,-84.91 1508.97,-103.79 1508.97,-103.79"/>
<polygon fill="black" stroke="black" points="1505.47,-103.79 1508.97,-113.79 1512.47,-103.79 1505.47,-103.79"/>
</g>
<!-- LeaveCountersComponent -->
<g id="node11" class="node">
<title>LeaveCountersComponent</title>
<polygon fill="#ffffb3" stroke="black" points="1391.08,-84.8 1224.92,-84.8 1224.92,-48.8 1391.08,-48.8 1391.08,-84.8"/>
<text text-anchor="middle" x="1308" y="-62.6" font-family="Times,serif" font-size="14.00">LeaveCountersComponent</text>
</g>
<!-- LeaveCountersComponent&#45;&gt;AppModule -->
<g id="edge11" class="edge">
<title>LeaveCountersComponent&#45;&gt;AppModule</title>
<path fill="none" stroke="black" d="M1308,-84.92C1308,-99.58 1308,-117.8 1308,-117.8 1308,-117.8 1483.1,-117.8 1483.1,-117.8"/>
<polygon fill="black" stroke="black" points="1483.1,-121.3 1493.1,-117.8 1483.1,-114.3 1483.1,-121.3"/>
</g>
<!-- LeavePlanningComponent -->
<g id="node12" class="node">
<title>LeavePlanningComponent</title>
<polygon fill="#ffffb3" stroke="black" points="1206.81,-84.8 1041.19,-84.8 1041.19,-48.8 1206.81,-48.8 1206.81,-84.8"/>
<text text-anchor="middle" x="1124" y="-62.6" font-family="Times,serif" font-size="14.00">LeavePlanningComponent</text>
</g>
<!-- LeavePlanningComponent&#45;&gt;AppModule -->
<g id="edge12" class="edge">
<title>LeavePlanningComponent&#45;&gt;AppModule</title>
<path fill="none" stroke="black" d="M1124,-84.81C1124,-100.85 1124,-121.8 1124,-121.8 1124,-121.8 1483.33,-121.8 1483.33,-121.8"/>
<polygon fill="black" stroke="black" points="1483.33,-125.3 1493.33,-121.8 1483.33,-118.3 1483.33,-125.3"/>
</g>
<!-- LeaveStatusPipe -->
<g id="node13" class="node">
<title>LeaveStatusPipe</title>
<polygon fill="#ffffb3" stroke="black" points="1023.81,-84.8 914.19,-84.8 914.19,-48.8 1023.81,-48.8 1023.81,-84.8"/>
<text text-anchor="middle" x="969" y="-62.6" font-family="Times,serif" font-size="14.00">LeaveStatusPipe</text>
</g>
<!-- LeaveStatusPipe&#45;&gt;AppModule -->
<g id="edge13" class="edge">
<title>LeaveStatusPipe&#45;&gt;AppModule</title>
<path fill="none" stroke="black" d="M969,-84.83C969,-101.86 969,-124.8 969,-124.8 969,-124.8 1482.92,-124.8 1482.92,-124.8"/>
<polygon fill="black" stroke="black" points="1482.92,-128.3 1492.92,-124.8 1482.92,-121.3 1482.92,-128.3"/>
</g>
<!-- LeaveTypePipe -->
<g id="node14" class="node">
<title>LeaveTypePipe</title>
<polygon fill="#ffffb3" stroke="black" points="895.85,-84.8 792.15,-84.8 792.15,-48.8 895.85,-48.8 895.85,-84.8"/>
<text text-anchor="middle" x="844" y="-62.6" font-family="Times,serif" font-size="14.00">LeaveTypePipe</text>
</g>
<!-- LeaveTypePipe&#45;&gt;AppModule -->
<g id="edge14" class="edge">
<title>LeaveTypePipe&#45;&gt;AppModule</title>
<path fill="none" stroke="black" d="M844,-85.07C844,-103.36 844,-128.8 844,-128.8 844,-128.8 1483.33,-128.8 1483.33,-128.8"/>
<polygon fill="black" stroke="black" points="1483.33,-132.3 1493.33,-128.8 1483.33,-125.3 1483.33,-132.3"/>
</g>
<!-- LeaveValidationComponent -->
<g id="node15" class="node">
<title>LeaveValidationComponent</title>
<polygon fill="#ffffb3" stroke="black" points="774.13,-84.8 599.87,-84.8 599.87,-48.8 774.13,-48.8 774.13,-84.8"/>
<text text-anchor="middle" x="687" y="-62.6" font-family="Times,serif" font-size="14.00">LeaveValidationComponent</text>
</g>
<!-- LeaveValidationComponent&#45;&gt;AppModule -->
<g id="edge15" class="edge">
<title>LeaveValidationComponent&#45;&gt;AppModule</title>
<path fill="none" stroke="black" d="M687,-84.91C687,-104.14 687,-131.8 687,-131.8 687,-131.8 1483.24,-131.8 1483.24,-131.8"/>
<polygon fill="black" stroke="black" points="1483.24,-135.3 1493.24,-131.8 1483.24,-128.3 1483.24,-135.3"/>
</g>
<!-- LoginComponent -->
<g id="node16" class="node">
<title>LoginComponent</title>
<polygon fill="#ffffb3" stroke="black" points="581.28,-84.8 466.72,-84.8 466.72,-48.8 581.28,-48.8 581.28,-84.8"/>
<text text-anchor="middle" x="524" y="-62.6" font-family="Times,serif" font-size="14.00">LoginComponent</text>
</g>
<!-- LoginComponent&#45;&gt;AppModule -->
<g id="edge16" class="edge">
<title>LoginComponent&#45;&gt;AppModule</title>
<path fill="none" stroke="black" d="M524,-84.93C524,-105.37 524,-135.8 524,-135.8 524,-135.8 1483.16,-135.8 1483.16,-135.8"/>
<polygon fill="black" stroke="black" points="1483.16,-139.3 1493.16,-135.8 1483.16,-132.3 1483.16,-139.3"/>
</g>
<!-- MenuComponent -->
<g id="node17" class="node">
<title>MenuComponent</title>
<polygon fill="#ffffb3" stroke="black" points="448.99,-84.8 335.01,-84.8 335.01,-48.8 448.99,-48.8 448.99,-84.8"/>
<text text-anchor="middle" x="392" y="-62.6" font-family="Times,serif" font-size="14.00">MenuComponent</text>
</g>
<!-- MenuComponent&#45;&gt;AppModule -->
<g id="edge17" class="edge">
<title>MenuComponent&#45;&gt;AppModule</title>
<path fill="none" stroke="black" d="M392,-84.84C392,-106.46 392,-139.8 392,-139.8 392,-139.8 1483.31,-139.8 1483.31,-139.8"/>
<polygon fill="black" stroke="black" points="1483.31,-143.3 1493.31,-139.8 1483.31,-136.3 1483.31,-143.3"/>
</g>
<!-- RequestComponent -->
<g id="node18" class="node">
<title>RequestComponent</title>
<polygon fill="#ffffb3" stroke="black" points="317.43,-84.8 190.57,-84.8 190.57,-48.8 317.43,-48.8 317.43,-84.8"/>
<text text-anchor="middle" x="254" y="-62.6" font-family="Times,serif" font-size="14.00">RequestComponent</text>
</g>
<!-- RequestComponent&#45;&gt;AppModule -->
<g id="edge18" class="edge">
<title>RequestComponent&#45;&gt;AppModule</title>
<path fill="none" stroke="black" d="M254,-84.81C254,-107.29 254,-142.8 254,-142.8 254,-142.8 1483.11,-142.8 1483.11,-142.8"/>
<polygon fill="black" stroke="black" points="1483.11,-146.3 1493.11,-142.8 1483.11,-139.3 1483.11,-146.3"/>
</g>
<!-- RequestLeaveTypePipe -->
<g id="node19" class="node">
<title>RequestLeaveTypePipe</title>
<polygon fill="#ffffb3" stroke="black" points="172.45,-84.8 23.55,-84.8 23.55,-48.8 172.45,-48.8 172.45,-84.8"/>
<text text-anchor="middle" x="98" y="-62.6" font-family="Times,serif" font-size="14.00">RequestLeaveTypePipe</text>
</g>
<!-- RequestLeaveTypePipe&#45;&gt;AppModule -->
<g id="edge19" class="edge">
<title>RequestLeaveTypePipe&#45;&gt;AppModule</title>
<path fill="none" stroke="black" d="M98,-84.95C98,-108.56 98,-146.8 98,-146.8 98,-146.8 1483.16,-146.8 1483.16,-146.8"/>
<polygon fill="black" stroke="black" points="1483.16,-150.3 1493.16,-146.8 1483.16,-143.3 1483.16,-150.3"/>
</g>
<!-- AppComponent  -->
<g id="node22" class="node">
<title>AppComponent </title>
<polygon fill="#80b1d3" stroke="black" points="1589.44,-214.8 1480.56,-214.8 1480.56,-178.8 1589.44,-178.8 1589.44,-214.8"/>
<text text-anchor="middle" x="1535" y="-192.6" font-family="Times,serif" font-size="14.00">AppComponent </text>
</g>
<!-- AppModule&#45;&gt;AppComponent  -->
<g id="edge21" class="edge">
<title>AppModule&#45;&gt;AppComponent </title>
<path fill="none" stroke="black" stroke-dasharray="1,5" d="M1535,-149.91C1535,-149.91 1535,-168.79 1535,-168.79"/>
<polygon fill="black" stroke="black" points="1531.5,-168.79 1535,-178.79 1538.5,-168.79 1531.5,-168.79"/>
</g>
<!-- AppRoutingModule -->
<g id="node21" class="node">
<title>AppRoutingModule</title>
<polygon fill="#8dd3c7" stroke="black" points="3209.27,-84.8 3206.27,-88.8 3185.27,-88.8 3182.27,-84.8 3080.73,-84.8 3080.73,-48.8 3209.27,-48.8 3209.27,-84.8"/>
<text text-anchor="middle" x="3145" y="-62.6" font-family="Times,serif" font-size="14.00">AppRoutingModule</text>
</g>
<!-- AppRoutingModule&#45;&gt;AppModule -->
<g id="edge20" class="edge">
<title>AppRoutingModule&#45;&gt;AppModule</title>
<path fill="none" stroke="black" d="M3145,-84.95C3145,-108.56 3145,-146.8 3145,-146.8 3145,-146.8 1586.83,-146.8 1586.83,-146.8"/>
<polygon fill="black" stroke="black" points="1586.83,-143.3 1576.83,-146.8 1586.83,-150.3 1586.83,-143.3"/>
</g>
</g>
</svg>
