<?xml version="1.0" encoding="UTF-8" standalone="no"?>
<!DOCTYPE svg PUBLIC "-//W3C//DTD SVG 1.1//EN"
 "http://www.w3.org/Graphics/SVG/1.1/DTD/svg11.dtd">
<!-- Generated by graphviz version 2.47.3 (20210619.1520)
 -->
<!-- Title: dependencies Pages: 1 -->
<svg width="1885pt" height="247pt"
 viewBox="0.00 0.00 1885.00 246.80" xmlns="http://www.w3.org/2000/svg" xmlns:xlink="http://www.w3.org/1999/xlink">
<g id="graph0" class="graph" transform="scale(1 1) rotate(0) translate(4 242.8)">
<title>dependencies</title>
<polygon fill="white" stroke="transparent" points="-4,4 -4,-242.8 1881,-242.8 1881,4 -4,4"/>
<text text-anchor="middle" x="938.5" y="-8.2" font-family="sans-serif" font-size="14.00">dependencies</text>
<g id="clust1" class="cluster">
<title>cluster_AppModule</title>
<polygon fill="none" stroke="black" stroke-dasharray="1,5" points="8,-32.8 8,-230.8 1869,-230.8 1869,-32.8 8,-32.8"/>
</g>
<g id="clust2" class="cluster">
<title>cluster_AppModule_declarations</title>
<polygon fill="none" stroke="black" points="168,-40.8 168,-92.8 1861,-92.8 1861,-40.8 168,-40.8"/>
</g>
<g id="clust14" class="cluster">
<title>cluster_AppModule_imports</title>
<polygon fill="none" stroke="black" points="16,-40.8 16,-92.8 160,-92.8 160,-40.8 16,-40.8"/>
</g>
<g id="clust16" class="cluster">
<title>cluster_AppModule_bootstrap</title>
<polygon fill="none" stroke="black" points="850,-170.8 850,-222.8 974,-222.8 974,-170.8 850,-170.8"/>
</g>
<!-- AppComponent -->
<g id="node1" class="node">
<title>AppComponent</title>
<polygon fill="#ffffb3" stroke="black" points="1852.94,-84.8 1747.06,-84.8 1747.06,-48.8 1852.94,-48.8 1852.94,-84.8"/>
<text text-anchor="middle" x="1800" y="-62.6" font-family="Times,serif" font-size="14.00">AppComponent</text>
</g>
<!-- AppModule -->
<g id="node12" class="node">
<title>AppModule</title>
<polygon fill="#8dd3c7" stroke="black" points="953.66,-149.8 950.66,-153.8 929.66,-153.8 926.66,-149.8 870.34,-149.8 870.34,-113.8 953.66,-113.8 953.66,-149.8"/>
<text text-anchor="middle" x="912" y="-127.6" font-family="Times,serif" font-size="14.00">AppModule</text>
</g>
<!-- AppComponent&#45;&gt;AppModule -->
<g id="edge1" class="edge">
<title>AppComponent&#45;&gt;AppModule</title>
<path fill="none" stroke="black" d="M1800,-85.05C1800,-107.82 1800,-143.8 1800,-143.8 1800,-143.8 963.94,-143.8 963.94,-143.8"/>
<polygon fill="black" stroke="black" points="963.94,-140.3 953.94,-143.8 963.94,-147.3 963.94,-140.3"/>
</g>
<!-- CompanyHolidayComponent -->
<g id="node2" class="node">
<title>CompanyHolidayComponent</title>
<polygon fill="#ffffb3" stroke="black" points="1729.38,-84.8 1548.62,-84.8 1548.62,-48.8 1729.38,-48.8 1729.38,-84.8"/>
<text text-anchor="middle" x="1639" y="-62.6" font-family="Times,serif" font-size="14.00">CompanyHolidayComponent</text>
</g>
<!-- CompanyHolidayComponent&#45;&gt;AppModule -->
<g id="edge2" class="edge">
<title>CompanyHolidayComponent&#45;&gt;AppModule</title>
<path fill="none" stroke="black" d="M1639,-85.08C1639,-106.12 1639,-137.8 1639,-137.8 1639,-137.8 963.7,-137.8 963.7,-137.8"/>
<polygon fill="black" stroke="black" points="963.7,-134.3 953.7,-137.8 963.7,-141.3 963.7,-134.3"/>
</g>
<!-- CompanyHolidayPipe -->
<g id="node3" class="node">
<title>CompanyHolidayPipe</title>
<polygon fill="#ffffb3" stroke="black" points="1530.43,-84.8 1389.57,-84.8 1389.57,-48.8 1530.43,-48.8 1530.43,-84.8"/>
<text text-anchor="middle" x="1460" y="-62.6" font-family="Times,serif" font-size="14.00">CompanyHolidayPipe</text>
</g>
<!-- CompanyHolidayPipe&#45;&gt;AppModule -->
<g id="edge3" class="edge">
<title>CompanyHolidayPipe&#45;&gt;AppModule</title>
<path fill="none" stroke="black" d="M1460,-84.91C1460,-104.14 1460,-131.8 1460,-131.8 1460,-131.8 964.09,-131.8 964.09,-131.8"/>
<polygon fill="black" stroke="black" points="964.09,-128.3 954.09,-131.8 964.09,-135.3 964.09,-128.3"/>
</g>
<!-- DisplayLeavesComponent -->
<g id="node4" class="node">
<title>DisplayLeavesComponent</title>
<polygon fill="#ffffb3" stroke="black" points="1372.02,-84.8 1207.98,-84.8 1207.98,-48.8 1372.02,-48.8 1372.02,-84.8"/>
<text text-anchor="middle" x="1290" y="-62.6" font-family="Times,serif" font-size="14.00">DisplayLeavesComponent</text>
</g>
<!-- DisplayLeavesComponent&#45;&gt;AppModule -->
<g id="edge4" class="edge">
<title>DisplayLeavesComponent&#45;&gt;AppModule</title>
<path fill="none" stroke="black" d="M1290,-84.82C1290,-102.17 1290,-125.8 1290,-125.8 1290,-125.8 963.9,-125.8 963.9,-125.8"/>
<polygon fill="black" stroke="black" points="963.9,-122.3 953.9,-125.8 963.9,-129.3 963.9,-122.3"/>
</g>
<!-- HeaderComponent -->
<g id="node5" class="node">
<title>HeaderComponent</title>
<polygon fill="#ffffb3" stroke="black" points="1189.74,-84.8 1068.26,-84.8 1068.26,-48.8 1189.74,-48.8 1189.74,-84.8"/>
<text text-anchor="middle" x="1129" y="-62.6" font-family="Times,serif" font-size="14.00">HeaderComponent</text>
</g>
<!-- HeaderComponent&#45;&gt;AppModule -->
<g id="edge5" class="edge">
<title>HeaderComponent&#45;&gt;AppModule</title>
<path fill="none" stroke="black" d="M1129,-85.04C1129,-100.37 1129,-119.8 1129,-119.8 1129,-119.8 963.84,-119.8 963.84,-119.8"/>
<polygon fill="black" stroke="black" points="963.84,-116.3 953.84,-119.8 963.84,-123.3 963.84,-116.3"/>
</g>
<!-- HomeComponent -->
<g id="node6" class="node">
<title>HomeComponent</title>
<polygon fill="#ffffb3" stroke="black" points="1049.55,-84.8 934.45,-84.8 934.45,-48.8 1049.55,-48.8 1049.55,-84.8"/>
<text text-anchor="middle" x="992" y="-62.6" font-family="Times,serif" font-size="14.00">HomeComponent</text>
</g>
<!-- HomeComponent&#45;&gt;AppModule -->
<g id="edge6" class="edge">
<title>HomeComponent&#45;&gt;AppModule</title>
<path fill="none" stroke="black" d="M944.03,-84.91C944.03,-84.91 944.03,-103.79 944.03,-103.79"/>
<polygon fill="black" stroke="black" points="940.53,-103.79 944.03,-113.79 947.53,-103.79 940.53,-103.79"/>
</g>
<!-- LeaveCountersComponent -->
<g id="node7" class="node">
<title>LeaveCountersComponent</title>
<polygon fill="#ffffb3" stroke="black" points="916.08,-84.8 749.92,-84.8 749.92,-48.8 916.08,-48.8 916.08,-84.8"/>
<text text-anchor="middle" x="833" y="-62.6" font-family="Times,serif" font-size="14.00">LeaveCountersComponent</text>
</g>
<!-- LeaveCountersComponent&#45;&gt;AppModule -->
<g id="edge7" class="edge">
<title>LeaveCountersComponent&#45;&gt;AppModule</title>
<path fill="none" stroke="black" d="M893.1,-84.91C893.1,-84.91 893.1,-103.79 893.1,-103.79"/>
<polygon fill="black" stroke="black" points="889.6,-103.79 893.1,-113.79 896.6,-103.79 889.6,-103.79"/>
</g>
<!-- LeaveStatusPipe -->
<g id="node8" class="node">
<title>LeaveStatusPipe</title>
<polygon fill="#ffffb3" stroke="black" points="731.81,-84.8 622.19,-84.8 622.19,-48.8 731.81,-48.8 731.81,-84.8"/>
<text text-anchor="middle" x="677" y="-62.6" font-family="Times,serif" font-size="14.00">LeaveStatusPipe</text>
</g>
<!-- LeaveStatusPipe&#45;&gt;AppModule -->
<g id="edge8" class="edge">
<title>LeaveStatusPipe&#45;&gt;AppModule</title>
<path fill="none" stroke="black" d="M677,-85.04C677,-100.37 677,-119.8 677,-119.8 677,-119.8 860.26,-119.8 860.26,-119.8"/>
<polygon fill="black" stroke="black" points="860.26,-123.3 870.26,-119.8 860.26,-116.3 860.26,-123.3"/>
</g>
<!-- LeaveTypePipe -->
<g id="node9" class="node">
<title>LeaveTypePipe</title>
<polygon fill="#ffffb3" stroke="black" points="603.85,-84.8 500.15,-84.8 500.15,-48.8 603.85,-48.8 603.85,-84.8"/>
<text text-anchor="middle" x="552" y="-62.6" font-family="Times,serif" font-size="14.00">LeaveTypePipe</text>
</g>
<!-- LeaveTypePipe&#45;&gt;AppModule -->
<g id="edge9" class="edge">
<title>LeaveTypePipe&#45;&gt;AppModule</title>
<path fill="none" stroke="black" d="M552,-84.82C552,-102.17 552,-125.8 552,-125.8 552,-125.8 860,-125.8 860,-125.8"/>
<polygon fill="black" stroke="black" points="860,-129.3 870,-125.8 860,-122.3 860,-129.3"/>
</g>
<!-- LeaveValidationComponent -->
<g id="node10" class="node">
<title>LeaveValidationComponent</title>
<polygon fill="#ffffb3" stroke="black" points="482.13,-84.8 307.87,-84.8 307.87,-48.8 482.13,-48.8 482.13,-84.8"/>
<text text-anchor="middle" x="395" y="-62.6" font-family="Times,serif" font-size="14.00">LeaveValidationComponent</text>
</g>
<!-- LeaveValidationComponent&#45;&gt;AppModule -->
<g id="edge10" class="edge">
<title>LeaveValidationComponent&#45;&gt;AppModule</title>
<path fill="none" stroke="black" d="M395,-84.91C395,-104.14 395,-131.8 395,-131.8 395,-131.8 860.13,-131.8 860.13,-131.8"/>
<polygon fill="black" stroke="black" points="860.13,-135.3 870.13,-131.8 860.13,-128.3 860.13,-135.3"/>
</g>
<!-- MenuComponent -->
<g id="node11" class="node">
<title>MenuComponent</title>
<polygon fill="#ffffb3" stroke="black" points="289.99,-84.8 176.01,-84.8 176.01,-48.8 289.99,-48.8 289.99,-84.8"/>
<text text-anchor="middle" x="233" y="-62.6" font-family="Times,serif" font-size="14.00">MenuComponent</text>
</g>
<!-- MenuComponent&#45;&gt;AppModule -->
<g id="edge11" class="edge">
<title>MenuComponent&#45;&gt;AppModule</title>
<path fill="none" stroke="black" d="M233,-85.08C233,-106.12 233,-137.8 233,-137.8 233,-137.8 860.29,-137.8 860.29,-137.8"/>
<polygon fill="black" stroke="black" points="860.29,-141.3 870.29,-137.8 860.29,-134.3 860.29,-141.3"/>
</g>
<!-- AppComponent  -->
<g id="node14" class="node">
<title>AppComponent </title>
<polygon fill="#80b1d3" stroke="black" points="966.44,-214.8 857.56,-214.8 857.56,-178.8 966.44,-178.8 966.44,-214.8"/>
<text text-anchor="middle" x="912" y="-192.6" font-family="Times,serif" font-size="14.00">AppComponent </text>
</g>
<!-- AppModule&#45;&gt;AppComponent  -->
<g id="edge13" class="edge">
<title>AppModule&#45;&gt;AppComponent </title>
<path fill="none" stroke="black" stroke-dasharray="1,5" d="M912,-149.91C912,-149.91 912,-168.79 912,-168.79"/>
<polygon fill="black" stroke="black" points="908.5,-168.79 912,-178.79 915.5,-168.79 908.5,-168.79"/>
</g>
<!-- AppRoutingModule -->
<g id="node13" class="node">
<title>AppRoutingModule</title>
<polygon fill="#8dd3c7" stroke="black" points="152.27,-84.8 149.27,-88.8 128.27,-88.8 125.27,-84.8 23.73,-84.8 23.73,-48.8 152.27,-48.8 152.27,-84.8"/>
<text text-anchor="middle" x="88" y="-62.6" font-family="Times,serif" font-size="14.00">AppRoutingModule</text>
</g>
<!-- AppRoutingModule&#45;&gt;AppModule -->
<g id="edge12" class="edge">
<title>AppRoutingModule&#45;&gt;AppModule</title>
<path fill="none" stroke="black" d="M88,-85.05C88,-107.82 88,-143.8 88,-143.8 88,-143.8 860.29,-143.8 860.29,-143.8"/>
<polygon fill="black" stroke="black" points="860.29,-147.3 870.29,-143.8 860.29,-140.3 860.29,-147.3"/>
</g>
</g>
</svg>
