<?xml version="1.0" encoding="UTF-8" standalone="no"?>
<!DOCTYPE svg PUBLIC "-//W3C//DTD SVG 1.1//EN"
 "http://www.w3.org/Graphics/SVG/1.1/DTD/svg11.dtd">
<!-- Generated by graphviz version 2.47.3 (20210619.1520)
 -->
<!-- Title: dependencies Pages: 1 -->
<svg width="3241pt" height="247pt"
     viewBox="0.00 0.00 3241.00 246.80" xmlns="http://www.w3.org/2000/svg">
<g id="graph0" class="graph" transform="scale(1 1) rotate(0) translate(4 242.8)">
<title>dependencies</title>
<polygon fill="white" stroke="transparent" points="-4,4 -4,-242.8 3237,-242.8 3237,4 -4,4"/>
<text text-anchor="middle" x="1616.5" y="-8.2" font-family="sans-serif" font-size="14.00">dependencies</text>
<g id="clust1" class="cluster">
<title>cluster_AppModule</title>
<polygon fill="none" stroke="black" stroke-dasharray="1,5" points="8,-32.8 8,-230.8 3225,-230.8 3225,-32.8 8,-32.8"/>
</g>
<g id="clust2" class="cluster">
<title>cluster_AppModule_declarations</title>
<polygon fill="none" stroke="black" points="168,-40.8 168,-92.8 3217,-92.8 3217,-40.8 168,-40.8"/>
</g>
<g id="clust22" class="cluster">
<title>cluster_AppModule_imports</title>
<polygon fill="none" stroke="black" points="16,-40.8 16,-92.8 160,-92.8 160,-40.8 16,-40.8"/>
</g>
<g id="clust24" class="cluster">
<title>cluster_AppModule_bootstrap</title>
<polygon fill="none" stroke="black" points="1477,-170.8 1477,-222.8 1601,-222.8 1601,-170.8 1477,-170.8"/>
</g>
<!-- AppComponent -->
<g id="node1" class="node">
<title>AppComponent</title>
<polygon fill="#ffffb3" stroke="black" points="3208.94,-84.8 3103.06,-84.8 3103.06,-48.8 3208.94,-48.8 3208.94,-84.8"/>
<text text-anchor="middle" x="3156" y="-62.6" font-family="Times,serif" font-size="14.00">AppComponent</text>
</g>
<!-- AppModule -->
<g id="node20" class="node">
<title>AppModule</title>
<polygon fill="#8dd3c7" stroke="black" points="1580.66,-149.8 1577.66,-153.8 1556.66,-153.8 1553.66,-149.8 1497.34,-149.8 1497.34,-113.8 1580.66,-113.8 1580.66,-149.8"/>
<text text-anchor="middle" x="1539" y="-127.6" font-family="Times,serif" font-size="14.00">AppModule</text>
</g>
<!-- AppComponent&#45;&gt;AppModule -->
<g id="edge1" class="edge">
<title>AppComponent&#45;&gt;AppModule</title>
<path fill="none" stroke="black" d="M3156,-84.95C3156,-108.56 3156,-146.8 3156,-146.8 3156,-146.8 1591.01,-146.8 1591.01,-146.8"/>
<polygon fill="black" stroke="black" points="1591.01,-143.3 1581.01,-146.8 1591.01,-150.3 1591.01,-143.3"/>
</g>
<!-- CompanyHolidayComponent -->
<g id="node2" class="node">
<title>CompanyHolidayComponent</title>
<polygon fill="#ffffb3" stroke="black" points="3085.38,-84.8 2904.62,-84.8 2904.62,-48.8 3085.38,-48.8 3085.38,-84.8"/>
<text text-anchor="middle" x="2995" y="-62.6" font-family="Times,serif" font-size="14.00">CompanyHolidayComponent</text>
</g>
<!-- CompanyHolidayComponent&#45;&gt;AppModule -->
<g id="edge2" class="edge">
<title>CompanyHolidayComponent&#45;&gt;AppModule</title>
<path fill="none" stroke="black" d="M2995,-84.81C2995,-107.29 2995,-142.8 2995,-142.8 2995,-142.8 1591.01,-142.8 1591.01,-142.8"/>
<polygon fill="black" stroke="black" points="1591.01,-139.3 1581.01,-142.8 1591,-146.3 1591.01,-139.3"/>
</g>
<!-- CompanyHolidayPipe -->
<g id="node3" class="node">
<title>CompanyHolidayPipe</title>
<polygon fill="#ffffb3" stroke="black" points="2886.43,-84.8 2745.57,-84.8 2745.57,-48.8 2886.43,-48.8 2886.43,-84.8"/>
<text text-anchor="middle" x="2816" y="-62.6" font-family="Times,serif" font-size="14.00">CompanyHolidayPipe</text>
</g>
<!-- CompanyHolidayPipe&#45;&gt;AppModule -->
<g id="edge3" class="edge">
<title>CompanyHolidayPipe&#45;&gt;AppModule</title>
<path fill="none" stroke="black" d="M2816,-84.84C2816,-106.46 2816,-139.8 2816,-139.8 2816,-139.8 1590.76,-139.8 1590.76,-139.8"/>
<polygon fill="black" stroke="black" points="1590.76,-136.3 1580.76,-139.8 1590.76,-143.3 1590.76,-136.3"/>
</g>
<!-- CreateCompanyHolidayComponent -->
<g id="node4" class="node">
<title>CreateCompanyHolidayComponent</title>
<polygon fill="#ffffb3" stroke="black" points="2727.91,-84.8 2510.09,-84.8 2510.09,-48.8 2727.91,-48.8 2727.91,-84.8"/>
<text text-anchor="middle" x="2619" y="-62.6" font-family="Times,serif" font-size="14.00">CreateCompanyHolidayComponent</text>
</g>
<!-- CreateCompanyHolidayComponent&#45;&gt;AppModule -->
<g id="edge4" class="edge">
<title>CreateCompanyHolidayComponent&#45;&gt;AppModule</title>
<path fill="none" stroke="black" d="M2619,-84.93C2619,-105.37 2619,-135.8 2619,-135.8 2619,-135.8 1590.68,-135.8 1590.68,-135.8"/>
<polygon fill="black" stroke="black" points="1590.68,-132.3 1580.68,-135.8 1590.68,-139.3 1590.68,-132.3"/>
</g>
<!-- DialogCompanyHolidayDelete -->
<g id="node5" class="node">
<title>DialogCompanyHolidayDelete</title>
<polygon fill="#ffffb3" stroke="black" points="2492.18,-84.8 2301.82,-84.8 2301.82,-48.8 2492.18,-48.8 2492.18,-84.8"/>
<text text-anchor="middle" x="2397" y="-62.6" font-family="Times,serif" font-size="14.00">DialogCompanyHolidayDelete</text>
</g>
<!-- DialogCompanyHolidayDelete&#45;&gt;AppModule -->
<g id="edge5" class="edge">
<title>DialogCompanyHolidayDelete&#45;&gt;AppModule</title>
<path fill="none" stroke="black" d="M2397,-84.91C2397,-104.14 2397,-131.8 2397,-131.8 2397,-131.8 1590.67,-131.8 1590.67,-131.8"/>
<polygon fill="black" stroke="black" points="1590.67,-128.3 1580.67,-131.8 1590.67,-135.3 1590.67,-128.3"/>
</g>
<!-- DialogLeaveDelete -->
<g id="node6" class="node">
<title>DialogLeaveDelete</title>
<polygon fill="#ffffb3" stroke="black" points="2283.33,-84.8 2158.67,-84.8 2158.67,-48.8 2283.33,-48.8 2283.33,-84.8"/>
<text text-anchor="middle" x="2221" y="-62.6" font-family="Times,serif" font-size="14.00">DialogLeaveDelete</text>
</g>
<!-- DialogLeaveDelete&#45;&gt;AppModule -->
<g id="edge6" class="edge">
<title>DialogLeaveDelete&#45;&gt;AppModule</title>
<path fill="none" stroke="black" d="M2221,-85.07C2221,-103.36 2221,-128.8 2221,-128.8 2221,-128.8 1590.89,-128.8 1590.89,-128.8"/>
<polygon fill="black" stroke="black" points="1590.89,-125.3 1580.89,-128.8 1590.89,-132.3 1590.89,-125.3"/>
</g>
<!-- DisplayLeavesComponent -->
<g id="node7" class="node">
<title>DisplayLeavesComponent</title>
<polygon fill="#ffffb3" stroke="black" points="2140.02,-84.8 1975.98,-84.8 1975.98,-48.8 2140.02,-48.8 2140.02,-84.8"/>
<text text-anchor="middle" x="2058" y="-62.6" font-family="Times,serif" font-size="14.00">DisplayLeavesComponent</text>
</g>
<!-- DisplayLeavesComponent&#45;&gt;AppModule -->
<g id="edge7" class="edge">
<title>DisplayLeavesComponent&#45;&gt;AppModule</title>
<path fill="none" stroke="black" d="M2058,-84.83C2058,-101.86 2058,-124.8 2058,-124.8 2058,-124.8 1591.03,-124.8 1591.03,-124.8"/>
<polygon fill="black" stroke="black" points="1591.03,-121.3 1581.03,-124.8 1591.03,-128.3 1591.03,-121.3"/>
</g>
<!-- EnumToArrayPipe -->
<g id="node8" class="node">
<title>EnumToArrayPipe</title>
<polygon fill="#ffffb3" stroke="black" points="1957.03,-84.8 1834.97,-84.8 1834.97,-48.8 1957.03,-48.8 1957.03,-84.8"/>
<text text-anchor="middle" x="1896" y="-62.6" font-family="Times,serif" font-size="14.00">EnumToArrayPipe</text>
</g>
<!-- EnumToArrayPipe&#45;&gt;AppModule -->
<g id="edge8" class="edge">
<title>EnumToArrayPipe&#45;&gt;AppModule</title>
<path fill="none" stroke="black" d="M1896,-84.81C1896,-100.85 1896,-121.8 1896,-121.8 1896,-121.8 1591,-121.8 1591,-121.8"/>
<polygon fill="black" stroke="black" points="1591,-118.3 1581,-121.8 1591,-125.3 1591,-118.3"/>
</g>
<!-- HeaderComponent -->
<g id="node9" class="node">
<title>HeaderComponent</title>
<polygon fill="#ffffb3" stroke="black" points="1816.74,-84.8 1695.26,-84.8 1695.26,-48.8 1816.74,-48.8 1816.74,-84.8"/>
<text text-anchor="middle" x="1756" y="-62.6" font-family="Times,serif" font-size="14.00">HeaderComponent</text>
</g>
<!-- HeaderComponent&#45;&gt;AppModule -->
<g id="edge9" class="edge">
<title>HeaderComponent&#45;&gt;AppModule</title>
<path fill="none" stroke="black" d="M1756,-84.92C1756,-99.58 1756,-117.8 1756,-117.8 1756,-117.8 1590.84,-117.8 1590.84,-117.8"/>
<polygon fill="black" stroke="black" points="1590.84,-114.3 1580.84,-117.8 1590.84,-121.3 1590.84,-114.3"/>
</g>
<!-- HomeComponent -->
<g id="node10" class="node">
<title>HomeComponent</title>
<polygon fill="#ffffb3" stroke="black" points="1676.55,-84.8 1561.45,-84.8 1561.45,-48.8 1676.55,-48.8 1676.55,-84.8"/>
<text text-anchor="middle" x="1619" y="-62.6" font-family="Times,serif" font-size="14.00">HomeComponent</text>
</g>
<!-- HomeComponent&#45;&gt;AppModule -->
<g id="edge10" class="edge">
<title>HomeComponent&#45;&gt;AppModule</title>
<path fill="none" stroke="black" d="M1571.03,-84.91C1571.03,-84.91 1571.03,-103.79 1571.03,-103.79"/>
<polygon fill="black" stroke="black" points="1567.53,-103.79 1571.03,-113.79 1574.53,-103.79 1567.53,-103.79"/>
</g>
<!-- LeaveCountersComponent -->
<g id="node11" class="node">
<title>LeaveCountersComponent</title>
<polygon fill="#ffffb3" stroke="black" points="1543.08,-84.8 1376.92,-84.8 1376.92,-48.8 1543.08,-48.8 1543.08,-84.8"/>
<text text-anchor="middle" x="1460" y="-62.6" font-family="Times,serif" font-size="14.00">LeaveCountersComponent</text>
</g>
<!-- LeaveCountersComponent&#45;&gt;AppModule -->
<g id="edge11" class="edge">
<title>LeaveCountersComponent&#45;&gt;AppModule</title>
<path fill="none" stroke="black" d="M1520.1,-84.91C1520.1,-84.91 1520.1,-103.79 1520.1,-103.79"/>
<polygon fill="black" stroke="black" points="1516.6,-103.79 1520.1,-113.79 1523.6,-103.79 1516.6,-103.79"/>
</g>
<!-- LeavePlanningComponent -->
<g id="node12" class="node">
<title>LeavePlanningComponent</title>
<polygon fill="#ffffb3" stroke="black" points="1358.81,-84.8 1193.19,-84.8 1193.19,-48.8 1358.81,-48.8 1358.81,-84.8"/>
<text text-anchor="middle" x="1276" y="-62.6" font-family="Times,serif" font-size="14.00">LeavePlanningComponent</text>
</g>
<!-- LeavePlanningComponent&#45;&gt;AppModule -->
<g id="edge12" class="edge">
<title>LeavePlanningComponent&#45;&gt;AppModule</title>
<path fill="none" stroke="black" d="M1276,-84.92C1276,-99.58 1276,-117.8 1276,-117.8 1276,-117.8 1487.33,-117.8 1487.33,-117.8"/>
<polygon fill="black" stroke="black" points="1487.33,-121.3 1497.33,-117.8 1487.33,-114.3 1487.33,-121.3"/>
</g>
<!-- LeaveStatusPipe -->
<g id="node13" class="node">
<title>LeaveStatusPipe</title>
<polygon fill="#ffffb3" stroke="black" points="1175.81,-84.8 1066.19,-84.8 1066.19,-48.8 1175.81,-48.8 1175.81,-84.8"/>
<text text-anchor="middle" x="1121" y="-62.6" font-family="Times,serif" font-size="14.00">LeaveStatusPipe</text>
</g>
<!-- LeaveStatusPipe&#45;&gt;AppModule -->
<g id="edge13" class="edge">
<title>LeaveStatusPipe&#45;&gt;AppModule</title>
<path fill="none" stroke="black" d="M1121,-84.81C1121,-100.85 1121,-121.8 1121,-121.8 1121,-121.8 1487.01,-121.8 1487.01,-121.8"/>
<polygon fill="black" stroke="black" points="1487.01,-125.3 1497.01,-121.8 1487.01,-118.3 1487.01,-125.3"/>
</g>
<!-- LeaveTypePipe -->
<g id="node14" class="node">
<title>LeaveTypePipe</title>
<polygon fill="#ffffb3" stroke="black" points="1047.85,-84.8 944.15,-84.8 944.15,-48.8 1047.85,-48.8 1047.85,-84.8"/>
<text text-anchor="middle" x="996" y="-62.6" font-family="Times,serif" font-size="14.00">LeaveTypePipe</text>
</g>
<!-- LeaveTypePipe&#45;&gt;AppModule -->
<g id="edge14" class="edge">
<title>LeaveTypePipe&#45;&gt;AppModule</title>
<path fill="none" stroke="black" d="M996,-84.83C996,-101.86 996,-124.8 996,-124.8 996,-124.8 1487.29,-124.8 1487.29,-124.8"/>
<polygon fill="black" stroke="black" points="1487.29,-128.3 1497.29,-124.8 1487.29,-121.3 1487.29,-128.3"/>
</g>
<!-- LeaveValidationComponent -->
<g id="node15" class="node">
<title>LeaveValidationComponent</title>
<polygon fill="#ffffb3" stroke="black" points="926.13,-84.8 751.87,-84.8 751.87,-48.8 926.13,-48.8 926.13,-84.8"/>
<text text-anchor="middle" x="839" y="-62.6" font-family="Times,serif" font-size="14.00">LeaveValidationComponent</text>
</g>
<!-- LeaveValidationComponent&#45;&gt;AppModule -->
<g id="edge15" class="edge">
<title>LeaveValidationComponent&#45;&gt;AppModule</title>
<path fill="none" stroke="black" d="M839,-85.07C839,-103.36 839,-128.8 839,-128.8 839,-128.8 1487.31,-128.8 1487.31,-128.8"/>
<polygon fill="black" stroke="black" points="1487.31,-132.3 1497.31,-128.8 1487.31,-125.3 1487.31,-132.3"/>
</g>
<!-- LoginComponent -->
<g id="node16" class="node">
<title>LoginComponent</title>
<polygon fill="#ffffb3" stroke="black" points="733.28,-84.8 618.72,-84.8 618.72,-48.8 733.28,-48.8 733.28,-84.8"/>
<text text-anchor="middle" x="676" y="-62.6" font-family="Times,serif" font-size="14.00">LoginComponent</text>
</g>
<!-- LoginComponent&#45;&gt;AppModule -->
<g id="edge16" class="edge">
<title>LoginComponent&#45;&gt;AppModule</title>
<path fill="none" stroke="black" d="M676,-84.91C676,-104.14 676,-131.8 676,-131.8 676,-131.8 1487.08,-131.8 1487.08,-131.8"/>
<polygon fill="black" stroke="black" points="1487.08,-135.3 1497.08,-131.8 1487.08,-128.3 1487.08,-135.3"/>
</g>
<!-- MenuComponent -->
<g id="node17" class="node">
<title>MenuComponent</title>
<polygon fill="#ffffb3" stroke="black" points="600.99,-84.8 487.01,-84.8 487.01,-48.8 600.99,-48.8 600.99,-84.8"/>
<text text-anchor="middle" x="544" y="-62.6" font-family="Times,serif" font-size="14.00">MenuComponent</text>
</g>
<!-- MenuComponent&#45;&gt;AppModule -->
<g id="edge17" class="edge">
<title>MenuComponent&#45;&gt;AppModule</title>
<path fill="none" stroke="black" d="M544,-84.93C544,-105.37 544,-135.8 544,-135.8 544,-135.8 1487.2,-135.8 1487.2,-135.8"/>
<polygon fill="black" stroke="black" points="1487.2,-139.3 1497.2,-135.8 1487.2,-132.3 1487.2,-139.3"/>
</g>
<!-- RequestComponent -->
<g id="node18" class="node">
<title>RequestComponent</title>
<polygon fill="#ffffb3" stroke="black" points="469.43,-84.8 342.57,-84.8 342.57,-48.8 469.43,-48.8 469.43,-84.8"/>
<text text-anchor="middle" x="406" y="-62.6" font-family="Times,serif" font-size="14.00">RequestComponent</text>
</g>
<!-- RequestComponent&#45;&gt;AppModule -->
<g id="edge18" class="edge">
<title>RequestComponent&#45;&gt;AppModule</title>
<path fill="none" stroke="black" d="M406,-84.84C406,-106.46 406,-139.8 406,-139.8 406,-139.8 1487.33,-139.8 1487.33,-139.8"/>
<polygon fill="black" stroke="black" points="1487.33,-143.3 1497.33,-139.8 1487.33,-136.3 1487.33,-143.3"/>
</g>
<!-- RequestLeaveTypePipe -->
<g id="node19" class="node">
<title>RequestLeaveTypePipe</title>
<polygon fill="#ffffb3" stroke="black" points="324.45,-84.8 175.55,-84.8 175.55,-48.8 324.45,-48.8 324.45,-84.8"/>
<text text-anchor="middle" x="250" y="-62.6" font-family="Times,serif" font-size="14.00">RequestLeaveTypePipe</text>
</g>
<!-- RequestLeaveTypePipe&#45;&gt;AppModule -->
<g id="edge19" class="edge">
<title>RequestLeaveTypePipe&#45;&gt;AppModule</title>
<path fill="none" stroke="black" d="M250,-84.81C250,-107.29 250,-142.8 250,-142.8 250,-142.8 1487.21,-142.8 1487.21,-142.8"/>
<polygon fill="black" stroke="black" points="1487.21,-146.3 1497.21,-142.8 1487.21,-139.3 1487.21,-146.3"/>
</g>
<!-- AppComponent  -->
<g id="node22" class="node">
<title>AppComponent </title>
<polygon fill="#80b1d3" stroke="black" points="1593.44,-214.8 1484.56,-214.8 1484.56,-178.8 1593.44,-178.8 1593.44,-214.8"/>
<text text-anchor="middle" x="1539" y="-192.6" font-family="Times,serif" font-size="14.00">AppComponent </text>
</g>
<!-- AppModule&#45;&gt;AppComponent  -->
<g id="edge21" class="edge">
<title>AppModule&#45;&gt;AppComponent </title>
<path fill="none" stroke="black" stroke-dasharray="1,5" d="M1539,-149.91C1539,-149.91 1539,-168.79 1539,-168.79"/>
<polygon fill="black" stroke="black" points="1535.5,-168.79 1539,-178.79 1542.5,-168.79 1535.5,-168.79"/>
</g>
<!-- AppRoutingModule -->
<g id="node21" class="node">
<title>AppRoutingModule</title>
<polygon fill="#8dd3c7" stroke="black" points="152.27,-84.8 149.27,-88.8 128.27,-88.8 125.27,-84.8 23.73,-84.8 23.73,-48.8 152.27,-48.8 152.27,-84.8"/>
<text text-anchor="middle" x="88" y="-62.6" font-family="Times,serif" font-size="14.00">AppRoutingModule</text>
</g>
<!-- AppRoutingModule&#45;&gt;AppModule -->
<g id="edge20" class="edge">
<title>AppRoutingModule&#45;&gt;AppModule</title>
<path fill="none" stroke="black" d="M88,-84.95C88,-108.56 88,-146.8 88,-146.8 88,-146.8 1487.14,-146.8 1487.14,-146.8"/>
<polygon fill="black" stroke="black" points="1487.14,-150.3 1497.14,-146.8 1487.14,-143.3 1487.14,-150.3"/>
</g>
</g>
</svg>
